<svg width="21" height="36" viewBox="0 0 21 36" fill="none" xmlns="http://www.w3.org/2000/svg">
<path fill-rule="evenodd" clip-rule="evenodd" d="M11.5056 34.0321C14.4632 28.2858 21 15.5854 21 10.5C21 4.70101 16.299 0 10.5 0C4.70101 0 0 4.70101 0 10.5C0 15.5854 6.5368 28.2858 9.49435 34.0321C9.90936 34.8384 10.2539 35.5078 10.5 36C10.7461 35.5078 11.0906 34.8384 11.5056 34.0321ZM10.5 17C14.0899 17 17 14.0899 17 10.5C17 6.91015 14.0899 4 10.5 4C6.91015 4 4 6.91015 4 10.5C4 14.0899 6.91015 17 10.5 17Z" fill="#656867"/>
</svg>
