<svg width="21" height="23" viewBox="0 0 21 23" fill="none" xmlns="http://www.w3.org/2000/svg">
<rect width="20.1675" height="23" rx="3" fill="#F05A3F"/>
<path fill-rule="evenodd" clip-rule="evenodd" d="M3 2C2.44772 2 2 2.44772 2 3V8C2 8.55228 2.44772 9 3 9H17C17.5523 9 18 8.55228 18 8V3C18 2.44772 17.5523 2 17 2H3ZM5.09832 11C4.53515 11 4.07861 11.4565 4.07861 12.0197C4.07861 12.5829 4.53515 13.0394 5.09832 13.0394H6.23132C6.79449 13.0394 7.25103 12.5829 7.25103 12.0197C7.25103 11.4565 6.79449 11 6.23132 11H5.09832ZM12.9165 12.0197C12.9165 11.4565 13.373 11 13.9362 11H15.0692C15.6324 11 16.0889 11.4565 16.0889 12.0197C16.0889 12.5829 15.6324 13.0394 15.0692 13.0394H13.9362C13.373 13.0394 12.9165 12.5829 12.9165 12.0197ZM9.51726 11C8.9541 11 8.49756 11.4565 8.49756 12.0197C8.49756 12.5829 8.95409 13.0394 9.51726 13.0394H10.6503C11.2134 13.0394 11.67 12.5829 11.67 12.0197C11.67 11.4565 11.2134 11 10.6503 11H9.51726ZM4.07861 15.3053C4.07861 14.7422 4.53515 14.2856 5.09832 14.2856H6.23132C6.79449 14.2856 7.25103 14.7422 7.25103 15.3053C7.25103 15.8685 6.79449 16.3251 6.23132 16.3251H5.09832C4.53515 16.3251 4.07861 15.8685 4.07861 15.3053ZM13.9362 14.2856C13.373 14.2856 12.9165 14.7422 12.9165 15.3053C12.9165 15.8685 13.373 16.3251 13.9362 16.3251H15.0692C15.6324 16.3251 16.0889 15.8685 16.0889 15.3053C16.0889 14.7422 15.6324 14.2856 15.0692 14.2856H13.9362ZM8.49756 15.3053C8.49756 14.7422 8.9541 14.2856 9.51726 14.2856H10.6503C11.2134 14.2856 11.67 14.7422 11.67 15.3053C11.67 15.8685 11.2134 16.3251 10.6503 16.3251H9.51726C8.95409 16.3251 8.49756 15.8685 8.49756 15.3053ZM5.09832 17.5713C4.53515 17.5713 4.07861 18.0278 4.07861 18.591C4.07861 19.1542 4.53515 19.6107 5.09832 19.6107H6.23132C6.79449 19.6107 7.25103 19.1542 7.25103 18.591C7.25103 18.0278 6.79449 17.5713 6.23132 17.5713H5.09832ZM12.9165 18.591C12.9165 18.0278 13.373 17.5713 13.9362 17.5713H15.0692C15.6324 17.5713 16.0889 18.0278 16.0889 18.591C16.0889 19.1542 15.6324 19.6107 15.0692 19.6107H13.9362C13.373 19.6107 12.9165 19.1542 12.9165 18.591ZM9.51726 17.5713C8.9541 17.5713 8.49756 18.0278 8.49756 18.591C8.49756 19.1542 8.95409 19.6107 9.51726 19.6107H10.6503C11.2134 19.6107 11.67 19.1542 11.67 18.591C11.67 18.0278 11.2134 17.5713 10.6503 17.5713H9.51726Z" fill="white"/>
</svg>
