<svg width="34" height="22" viewBox="0 0 34 22" fill="none" xmlns="http://www.w3.org/2000/svg">
<path fill-rule="evenodd" clip-rule="evenodd" d="M7.69614 1.18669H8.23764C8.57609 1.18669 8.84684 0.922985 8.84684 0.593347C8.84684 0.26371 8.57609 0 8.23764 0H7.69614C7.35769 0 7.08694 0.26371 7.08694 0.593347C7.08694 0.922985 7.35769 1.18669 7.69614 1.18669ZM6.15966 5.27407H16.6717C17.0101 5.27407 17.2809 5.01036 17.2809 4.68072C17.2809 4.35108 17.0101 4.08737 16.6717 4.08737H6.15966C5.82122 4.08737 5.55046 4.35108 5.55046 4.68072C5.55046 5.01036 5.82122 5.27407 6.15966 5.27407ZM26.5271 8.55748C26.3172 8.30036 26.3714 7.92457 26.6354 7.72679C26.9061 7.52901 27.2852 7.57516 27.4883 7.83227L28.9706 9.70461V11.5572H23.9414C23.6029 11.5572 23.3322 11.2935 23.3322 10.9638C23.3322 10.6342 23.6029 10.3705 23.9414 10.3705H27.7522V10.1134L26.5271 8.55748ZM12.4344 8.17474C12.7728 8.17474 13.0436 8.43845 13.0436 8.76809C13.0436 9.09773 12.7661 9.36144 12.4344 9.36144H0.609198C0.270755 9.36144 0 9.09773 0 8.76809C0 8.43845 0.270755 8.17474 0.609198 8.17474H12.4344ZM4.26439 5.27407H3.72288C3.38444 5.27407 3.11369 5.01036 3.11369 4.68072C3.11369 4.35108 3.38444 4.08737 3.72288 4.08737H4.26439C4.60284 4.08737 4.87359 4.35108 4.87359 4.68072C4.87359 5.01036 4.60284 5.27407 4.26439 5.27407ZM31.5024 9.47378H32.4229C33.2961 9.47378 34.0001 10.1594 33.9933 11.0099V16.6269C33.9933 17.5169 33.2487 18.2421 32.3349 18.2421H31.4076C31.4144 18.3278 31.4212 18.4201 31.4212 18.5058C31.4212 20.4309 29.8102 22 27.8337 22C25.8571 22 24.2462 20.4309 24.2462 18.5058C24.2462 18.4201 24.2529 18.3278 24.2597 18.2421H12.5969C12.6037 18.3278 12.6105 18.4201 12.6105 18.5058C12.6105 20.4309 10.9995 22 9.02298 22C7.04648 22 5.43549 20.4309 5.43549 18.5058C5.43549 18.4201 5.44226 18.3278 5.44902 18.2421H2.72794C2.3895 18.2421 2.11874 17.9784 2.11874 17.6488C2.11874 17.3191 2.3895 17.0554 2.72794 17.0554H5.76039C6.32898 15.849 7.57445 15.0117 9.02298 15.0117C10.4715 15.0117 11.717 15.849 12.2856 17.0554H21.4777V1.18669H10.3564C10.018 1.18669 9.74725 0.922985 9.74725 0.593347C9.74725 0.26371 10.018 0 10.3564 0H22.6961V4.85885H27.5291C28.2262 4.85885 28.8828 5.22146 29.2416 5.80162L31.5024 9.47378ZM6.65388 18.5058C6.65388 19.7782 7.71659 20.8133 9.02298 20.8133C10.3294 20.8133 11.3921 19.7782 11.3921 18.5058C11.3921 17.2334 10.3294 16.1984 9.02298 16.1984C7.71659 16.1984 6.65388 17.2334 6.65388 18.5058ZM25.4713 18.5058C25.4713 19.7782 26.534 20.8133 27.8404 20.8133C29.1468 20.8133 30.2095 19.7782 30.2095 18.5058C30.2095 17.2334 29.1468 16.1984 27.8404 16.1984C26.534 16.1984 25.4713 17.2334 25.4713 18.5058ZM32.3417 17.0554C32.5854 17.0554 32.7817 16.8642 32.7817 16.6269V11.0099C32.7817 10.8187 32.6192 10.6605 32.4229 10.6605H30.812L28.1992 6.41474C28.057 6.184 27.7998 6.04555 27.5291 6.04555H22.6961V17.0554H24.5778C25.1464 15.849 26.3919 15.0117 27.8404 15.0117C29.289 15.0117 30.5344 15.849 31.103 17.0554H32.3417Z" fill="#D1D2D4"/>
</svg>
