<svg width="28" height="31" viewBox="0 0 28 31" fill="none" xmlns="http://www.w3.org/2000/svg">
<path fill-rule="evenodd" clip-rule="evenodd" d="M9.36499 24.3372H1.23064V1.27518H15.313V2.41525C15.313 2.74099 15.5702 3.00157 15.8918 3.00157C16.2133 3.00157 16.4705 2.74099 16.4705 2.41525V0.102539H0.0731812V25.5098H9.36499C9.68651 25.5098 9.94372 25.2492 9.94372 24.9235C9.94372 24.5978 9.68651 24.3372 9.36499 24.3372ZM13.0367 3.60086C12.7731 3.88751 12.6766 4.27839 12.7731 4.64973C12.9274 5.23605 13.1074 5.74419 13.3132 6.16113C13.744 7.0341 14.3742 7.60739 14.7922 7.9201L12.3615 10.6954H23.9554V7.81586L24.4055 6.34354C24.4891 6.07644 24.4505 5.77677 24.309 5.53572C24.1676 5.29468 23.9232 5.1253 23.6531 5.07318L14.0591 3.2621C13.6797 3.19044 13.3003 3.31422 13.0367 3.60086ZM14.9401 9.52922L16.0397 8.2784L22.8108 8.21977V9.52922H14.9401ZM22.9908 7.04713L16.1168 7.10576C15.9625 7.02107 15.776 7.01456 15.6217 7.0797C15.3387 6.88426 14.7343 6.41521 14.3485 5.63996C14.1877 5.32074 14.0398 4.89728 13.9112 4.42823L23.2416 6.19371L22.9908 7.04713ZM23.4602 18.0244H15.3323C12.8245 18.0244 10.7861 20.0896 10.7861 22.6303V29.7118C10.7861 30.0375 11.0433 30.2981 11.3648 30.2981C11.6863 30.2981 11.9435 30.0375 11.9435 29.7118V22.6303C11.9435 20.741 13.4611 19.1971 15.3323 19.1971H21.4861L15.1523 27.9137V22.9691C15.1523 22.6433 14.895 22.3827 14.5735 22.3827C14.252 22.3827 13.9948 22.6433 13.9948 22.9691V29.8746C13.9948 30.2004 14.252 30.461 14.5735 30.461C14.895 30.461 15.1523 30.2004 15.1523 29.8746V29.8095H23.5438V29.8746C23.5438 30.2004 23.801 30.461 24.1226 30.461C24.4441 30.461 24.7013 30.2004 24.7013 29.8746V22.9691C24.7013 22.6433 24.4441 22.3827 24.1226 22.3827C23.801 22.3827 23.5438 22.6433 23.5438 22.9691V28.6368H16.0654L22.9201 19.1971H23.4538C25.3186 19.1971 26.8426 20.7345 26.8426 22.6303V29.9137C26.8426 30.2395 27.0998 30.5 27.4213 30.5C27.7428 30.5 28 30.2395 28 29.9137V22.6303C28 20.0896 25.9616 18.0244 23.4602 18.0244ZM22.8687 11.8939C22.8687 11.5682 23.1259 11.3076 23.4474 11.3076C23.7689 11.3076 24.0261 11.5682 24.0261 11.8939C24.0261 14.4803 21.9491 16.5845 19.3963 16.5845C16.8435 16.5845 14.7665 14.4803 14.7665 11.8939C14.7665 11.5682 15.0237 11.3076 15.3452 11.3076C15.6667 11.3076 15.9239 11.5682 15.9239 11.8939C15.9239 13.8353 17.4801 15.4119 19.3963 15.4119C21.3125 15.4119 22.8687 13.8353 22.8687 11.8939ZM9.27499 16.1407C9.48076 15.8932 9.84729 15.8606 10.0916 16.069C10.336 16.2775 10.3681 16.6489 10.1624 16.8964L7.0694 20.6293L5.08243 18.4469C4.8638 18.2124 4.87666 17.841 5.11458 17.6195C5.34607 17.398 5.7126 17.4111 5.93123 17.6521L7.03081 18.8573L9.27499 16.1407ZM10.0916 10.2722C9.84729 10.0637 9.48076 10.0963 9.27499 10.3438L7.03081 13.0605L5.93123 11.8552C5.7126 11.6142 5.34607 11.6012 5.11458 11.8227C4.87666 12.0442 4.8638 12.4155 5.08243 12.65L7.0694 14.8325L10.1624 11.0995C10.3681 10.852 10.336 10.4806 10.0916 10.2722ZM9.27499 4.54598C9.48076 4.29843 9.84729 4.26585 10.0916 4.47432C10.336 4.68279 10.3681 5.05413 10.1624 5.30169L7.0694 9.0346L5.08243 6.85218C4.8638 6.61765 4.87666 6.24632 5.11458 6.02482C5.34607 5.80332 5.7126 5.81635 5.93123 6.05739L7.03081 7.26261L9.27499 4.54598Z" fill="#F05A3F"/>
</svg>
