<svg width="35" height="29" viewBox="0 0 35 29" fill="none" xmlns="http://www.w3.org/2000/svg">
<path fill-rule="evenodd" clip-rule="evenodd" d="M26.7828 3.8143L29.9338 3.02392C30.0165 3.0002 30.0991 2.9587 30.164 2.89941L31.4151 1.77948V8.87512L26.7828 3.8143ZM25.5736 4.11763L21.7467 5.07753C22.7789 6.71618 23.3769 8.65769 23.3769 10.7378L23.3769 10.7597L26.4791 14.9716H31.4151V10.4996L25.5736 4.11763ZM32.5128 10.343V14.9716H33.4513C33.7523 14.9716 34.0001 15.2206 34.0001 15.523C34.0001 15.8254 33.7582 16.0744 33.4513 16.0744H32.5128V27.8972H33.457C33.758 27.8972 34.0059 28.1462 34.0059 28.4486C34 28.751 33.758 29 33.4511 29H31.9668L31.964 29L31.9611 29H26.2139L26.198 29.0002L26.1825 29H12.8317L12.8245 29L12.8173 29H4.40113C4.39969 29 4.39825 29 4.39681 29H1.71741C1.71597 29 1.71453 29 1.71308 29H0.548863C0.247874 29 0 28.751 0 28.4486C0 28.1462 0.247874 27.8972 0.548863 27.8972H1.16855V23.1241C0.779032 22.9047 0.50165 22.46 0.50165 21.9798V17.5388C0.50165 16.7146 1.16855 16.0387 1.99479 16.0387H2.46693C3.0335 16.0387 3.51154 16.43 3.64138 16.9577L4.62698 16.845L6.02569 15.2916C6.24406 15.0485 6.53914 14.9062 6.86374 14.8884C7.19424 14.8765 7.50113 14.9832 7.7372 15.2026C8.23295 15.6532 8.27426 16.4241 7.82573 16.9221L6.12012 18.8195C5.91946 19.0389 5.64798 19.1812 5.35879 19.2108L3.6827 19.4005V26.6283C4.34428 26.7003 4.8668 27.2328 4.93274 27.8972H12.2757V21.331C10.4748 21.2374 8.73338 20.6843 7.20607 19.7206C6.9523 19.5605 6.87558 19.2166 7.03492 18.9617C7.19427 18.7067 7.53657 18.6296 7.79035 18.7897C9.27373 19.7306 10.9865 20.2338 12.7477 20.248C12.7728 20.2444 12.7985 20.2425 12.8245 20.2425C12.8506 20.2425 12.8762 20.2444 12.9014 20.248C15.0593 20.2307 17.0472 19.4841 18.6325 18.242C18.6606 18.2144 18.6915 18.1898 18.7248 18.1687C20.8328 16.4746 22.2063 13.8948 22.2818 10.9957C22.277 10.9499 22.2779 10.9039 22.2844 10.8586C22.2848 10.8203 22.2851 10.782 22.2851 10.7437C22.2851 8.64951 21.6067 6.71055 20.4597 5.13707C20.4389 5.11652 20.4198 5.09398 20.4025 5.06952C19.6058 3.99039 18.6143 3.11879 17.4693 2.46657C17.4514 2.45629 17.4343 2.44512 17.4179 2.43314C16.0565 1.66901 14.4896 1.23318 12.8245 1.23318C7.60739 1.23318 3.36403 5.49632 3.36403 10.7378V10.8742C3.36403 11.1765 3.12206 11.4256 2.82107 11.4315C2.50828 11.4256 2.27221 11.1884 2.26631 10.886V10.7378C2.26631 4.89154 6.99951 0.130341 12.8245 0.130341C14.648 0.130341 16.3649 0.597281 17.8629 1.41859L29.7509 0.00592926C29.7627 0.00592926 29.773 0.00444743 29.7833 0.00296536L29.7833 0.00296472C29.7937 0.00148237 29.804 0 29.8158 0H31.964H31.964C32.116 2.32023e-05 32.2545 0.0635514 32.3543 0.165383C32.4069 0.218734 32.4494 0.283126 32.4775 0.355755C32.5076 0.433533 32.5189 0.515247 32.5128 0.594873V10.2344C32.5164 10.2705 32.5164 10.3069 32.5128 10.343ZM3.81253 27.8972C3.75941 27.7904 3.65318 27.7193 3.52925 27.7193H3.13383C2.83284 27.7193 2.58497 27.4703 2.58497 27.1679V18.9143C2.58497 18.6357 2.79153 18.3985 3.06891 18.3688L5.22896 18.1198C5.25846 18.1139 5.28207 18.102 5.30568 18.0783L7.00538 16.1869C7.04669 16.1394 7.04669 16.0624 6.99948 16.0209C6.96997 15.9912 6.94046 15.9912 6.91686 15.9912C6.89325 15.9912 6.86374 16.0031 6.83423 16.0327L5.29978 17.7403C5.21125 17.8411 5.08731 17.9004 4.95747 17.9182L3.19875 18.1198C3.04531 18.1376 2.89186 18.0902 2.77383 17.9834C2.65579 17.8767 2.59087 17.7285 2.59087 17.5743V17.266C2.59087 17.2008 2.53776 17.1474 2.47284 17.1474H2.0007C1.78233 17.1474 1.60528 17.3253 1.60528 17.5447V21.9857C1.60528 22.0924 1.70561 22.1695 1.73512 22.1814C2.03611 22.1814 2.27218 22.4304 2.27218 22.7328V27.8972H3.81253ZM26.7469 16.0744V22.9937H28.8712C29.1722 22.9937 29.4201 23.2428 29.4201 23.5452C29.4201 23.8475 29.1722 24.0966 28.8712 24.0966H26.7469V27.8972H31.4151V16.0744H26.7469ZM25.6492 15.7009V22.9937H19.5642V18.8933C21.4829 17.2881 22.8285 15.0134 23.2426 12.4305L25.6492 15.7009ZM19.5642 24.0966H25.6492V27.8972H19.5642V24.0966ZM18.4665 19.698V23.5452V27.8972H13.3734V21.331C15.2393 21.2344 16.9786 20.6481 18.4665 19.698ZM21.0611 4.11253L29.5325 1.9863L30.524 1.09691H29.8453L19.2827 2.35303C19.942 2.86726 20.5393 3.45823 21.0611 4.11253ZM8.5458 13.3292C8.5458 15.7009 10.4639 17.6279 12.8246 17.6279C15.1794 17.6279 17.1033 15.7009 17.1033 13.3292C17.1033 10.9575 15.1853 9.03045 12.8246 9.03045C10.4639 9.03045 8.5458 10.9575 8.5458 13.3292ZM9.64353 13.3292C9.64353 11.5682 11.0717 10.1333 12.8246 10.1333C14.5774 10.1333 16.0056 11.5682 16.0056 13.3292C16.0056 15.0902 14.5774 16.525 12.8246 16.525C11.0717 16.525 9.64353 15.0902 9.64353 13.3292ZM7.59551 8.92934C7.50699 8.92934 7.41846 8.91155 7.34174 8.86412C7.07616 8.72182 6.96993 8.38978 7.11157 8.12296C8.2388 5.98843 10.4225 4.66028 12.8245 4.66028C15.2206 4.66028 17.4101 5.98843 18.5374 8.12296C18.679 8.38978 18.5787 8.72182 18.3072 8.86412C18.0416 9.00642 17.7111 8.90562 17.5695 8.63288C16.637 6.86003 14.8193 5.75719 12.8245 5.75719C10.8297 5.75719 9.01193 6.86003 8.07946 8.63288C7.97913 8.82261 7.79027 8.92934 7.59551 8.92934ZM2.24854 15.6297C1.23934 15.6297 0.418991 14.8055 0.418991 13.7916C0.418991 12.7777 1.23934 11.9535 2.24854 11.9535C3.25774 11.9535 4.07808 12.7777 4.07808 13.7916C4.08398 14.8055 3.25774 15.6297 2.24854 15.6297ZM2.24854 13.0564C1.84131 13.0564 1.51082 13.3884 1.51082 13.7975C1.51082 14.2067 1.84131 14.5387 2.24854 14.5387C2.65576 14.5387 2.98626 14.2067 2.98626 13.7975C2.98626 13.3884 2.65576 13.0564 2.24854 13.0564Z" fill="#D1D2D4"/>
</svg>
