<svg width="22" height="22" viewBox="0 0 22 22" fill="none" xmlns="http://www.w3.org/2000/svg">
<rect width="22" height="22" rx="2" fill="#F05A3F"/>
<path fill-rule="evenodd" clip-rule="evenodd" d="M17.6688 10.6306C17.6451 10.6334 17.6245 10.6362 17.6008 10.6362C17.5065 10.6369 17.4151 10.6039 17.343 10.5432C17.2709 10.4825 17.2227 10.3981 17.2072 10.3051C16.9733 8.92733 16.314 7.65736 15.3218 6.67337C14.3216 5.67763 13.0644 5.02469 11.6855 4.7915C11.5809 4.7738 11.4876 4.71537 11.4259 4.62901C11.3643 4.54265 11.3394 4.43539 11.3567 4.33071C11.3655 4.27926 11.3843 4.23004 11.412 4.18586C11.4398 4.14168 11.476 4.1034 11.5186 4.07321C11.5612 4.04303 11.6092 4.02152 11.6601 4.00993C11.711 3.99834 11.7637 3.99688 11.8151 4.00564C13.3579 4.26697 14.7806 5.00344 15.8847 6.1123C16.9944 7.21341 17.7319 8.63415 17.9939 10.1755C18.0031 10.2268 18.0019 10.2794 17.9905 10.3302C17.979 10.3811 17.9575 10.4291 17.9272 10.4715C17.8969 10.5139 17.8585 10.5499 17.8141 10.5772C17.7697 10.6045 17.7203 10.6227 17.6688 10.6306ZM11.7065 6.54371C12.6428 6.70299 13.5062 7.15015 14.1766 7.82301C14.8503 8.49218 15.2983 9.35503 15.458 10.2911C15.4669 10.3429 15.4655 10.396 15.4538 10.4473C15.4421 10.4986 15.4204 10.547 15.3899 10.5899C15.3595 10.6327 15.3208 10.6692 15.2763 10.697C15.2317 10.7249 15.1821 10.7437 15.1302 10.7524C15.1064 10.7552 15.0854 10.758 15.0621 10.758C14.9679 10.7585 14.8767 10.7256 14.8046 10.665C14.7325 10.6044 14.6842 10.5202 14.6685 10.4273C14.5364 9.65383 14.166 8.94096 13.609 8.38827C13.0562 7.83024 12.3421 7.45993 11.5675 7.32957C11.5158 7.32097 11.4664 7.30216 11.4221 7.27422C11.3779 7.24629 11.3396 7.20979 11.3096 7.16688C11.2796 7.12397 11.2584 7.0755 11.2474 7.02432C11.2363 6.97313 11.2356 6.92025 11.2453 6.86878C11.2636 6.76465 11.3224 6.67201 11.4088 6.6111C11.4952 6.55019 11.6022 6.52596 11.7065 6.54371ZM9.05448 9.17646C8.83531 9.39846 8.61054 9.62885 8.36806 9.85038C8.36992 9.85551 8.37319 9.85971 8.37505 9.86484L7.76324 10.4334C7.69702 10.3056 7.63733 10.1778 7.5837 10.0477L7.57531 10.0211C7.52122 9.85318 7.47412 9.6046 7.72873 9.35042C7.73153 9.34482 7.73759 9.34156 7.74412 9.33596C7.99926 9.1035 8.24685 8.86287 8.4865 8.61446C8.57277 8.53191 8.65531 8.44656 8.74111 8.36028C9.05402 8.04734 9.05402 7.75771 8.74111 7.4443L7.93298 6.63839C7.83831 6.54045 7.74412 6.44577 7.65225 6.35156C7.47132 6.16501 7.29971 5.99058 7.11925 5.82268L7.10992 5.81382C7.01619 5.71914 6.86463 5.60628 6.67857 5.60628C6.52702 5.60628 6.3736 5.68043 6.22857 5.81662L5.21992 6.82401C4.9803 7.05609 4.83483 7.3685 4.81142 7.70128C4.76712 8.24275 4.86738 8.81594 5.14251 9.5519C5.58971 10.757 6.26448 11.8806 7.27313 13.095C8.49536 14.552 9.96614 15.7017 11.6412 16.5108C12.2535 16.8037 13.0704 17.146 13.9495 17.2029C13.9938 17.2057 14.0409 17.2057 14.0856 17.2057C14.5473 17.2057 14.8989 17.0551 15.1978 16.7352C15.382 16.5197 15.5769 16.3275 15.7695 16.1443C15.8964 16.0197 16.0148 15.9078 16.1305 15.7837C16.4317 15.4708 16.4317 15.1606 16.1277 14.8594L14.4965 13.2307L14.4904 13.2251C14.3985 13.1244 14.2474 13.0087 14.0646 13.0087C13.8781 13.0087 13.7182 13.1305 13.6174 13.2307L12.606 14.2419C12.5561 14.2922 12.4017 14.4461 12.1555 14.4461C12.0581 14.4461 11.9634 14.4224 11.8627 14.372C11.8515 14.3655 11.8389 14.3571 11.8277 14.3515C11.7324 14.2951 11.6347 14.2428 11.5348 14.1948C11.4164 14.1351 11.2919 14.0735 11.1707 13.9965C10.2203 13.3963 9.35946 12.6137 8.54246 11.6082L8.53966 11.6054C8.48417 11.5354 8.43847 11.4706 8.38764 11.403L8.97567 10.8564C9.03676 10.9389 9.09785 11.0215 9.16733 11.1092C9.93023 12.0461 10.7267 12.77 11.6025 13.3259C11.6887 13.3786 11.789 13.4294 11.8953 13.4821C11.969 13.5204 12.0469 13.5591 12.1233 13.6001L13.0583 12.6697C13.3582 12.3707 13.707 12.214 14.0707 12.214C14.4377 12.214 14.7832 12.3735 15.071 12.672L16.6956 14.3002C16.9941 14.5954 17.1517 14.9475 17.1517 15.3141C17.1517 15.6774 16.9973 16.0323 16.7045 16.3364C16.5777 16.4693 16.4471 16.5966 16.3198 16.7174C16.1337 16.8979 15.9556 17.0658 15.8022 17.2519C15.7994 17.2589 15.7933 17.2617 15.791 17.2673C15.3405 17.7547 14.7674 18 14.0828 18C14.0209 17.9995 13.9591 17.9976 13.8972 17.9944C12.8821 17.9286 11.9737 17.5476 11.2933 17.2253C9.51148 16.3658 7.9521 15.1453 6.65619 13.5997C5.58784 12.3171 4.87157 11.1204 4.39266 9.8294C4.19541 9.30378 3.94126 8.5002 4.01214 7.63692C4.05326 7.11636 4.28115 6.62822 4.6538 6.26248L5.66106 5.24903L5.66665 5.24343C5.9623 4.9594 6.31204 4.80876 6.67204 4.80876C7.03298 4.80876 7.37619 4.9594 7.66344 5.24343C7.85603 5.42066 8.04256 5.61047 8.21977 5.7933C8.3093 5.88797 8.40396 5.98172 8.49536 6.07406L9.3035 6.88044C9.92464 7.50167 9.92464 8.30525 9.3035 8.92554C9.22003 9.00856 9.13795 9.09391 9.05448 9.17646Z" fill="white"/>
</svg>
