<svg width="33" height="33" viewBox="0 0 33 33" fill="none" xmlns="http://www.w3.org/2000/svg">
<g clip-path="url(#clip0)">
<path fill-rule="evenodd" clip-rule="evenodd" d="M32.245 18.3931L32.245 18.3851C32.2459 17.6614 32.2468 16.9373 32.2468 16.2123C32.2468 15.6221 32.2462 15.0325 32.2456 14.4429C32.2434 12.0843 32.2411 9.7257 32.2751 7.33115C32.2893 6.76905 32.1191 6.40369 31.5235 6.23506C31.2293 6.15558 30.9464 6.02059 30.6641 5.88592C30.4972 5.80629 30.3305 5.72678 30.1619 5.6589C29.338 5.32091 28.5159 4.98483 27.6952 4.64926C26.2978 4.07797 24.904 3.50813 23.5102 2.93272C23.0668 2.75123 22.6241 2.56902 22.1816 2.38691L22.1815 2.38687C20.671 1.76524 19.1633 1.14473 17.6386 0.55784C17.505 0.506936 17.3723 0.4421 17.2386 0.376791C16.8186 0.171659 16.389 -0.0381502 15.8941 0.16437C13.8235 1.00752 11.767 1.85067 9.71048 2.70788C9.0591 2.97812 8.40772 3.24908 7.75617 3.52011L7.75615 3.52012L7.75614 3.52012L7.75607 3.52015L7.75586 3.52024C5.5277 4.44711 3.29761 5.37478 1.05904 6.27722C0.406634 6.53016 0.108798 6.90958 0.122981 7.5841C0.13243 8.49231 0.129288 9.39428 0.126138 10.2983C0.12456 10.7511 0.122981 11.2044 0.122981 11.6593V24.7984C0.122981 25.3746 0.193894 25.8805 0.817932 26.1194C1.43014 26.3574 2.03811 26.6038 2.64417 26.8495L2.64429 26.8495L2.6444 26.8496C3.14744 27.0534 3.64915 27.2568 4.15087 27.4544C4.88266 27.7466 5.61446 28.0344 6.34625 28.3222C7.44402 28.7539 8.54179 29.1856 9.63957 29.6325C11.6393 30.4475 13.6249 31.2766 15.6105 32.1198C15.965 32.2744 16.3054 32.3025 16.6884 32.1479C18.1386 31.5536 19.5946 30.9705 21.049 30.388L21.0496 30.3877L21.0505 30.3874L21.0506 30.3874C21.8998 30.0472 22.7485 29.7073 23.5953 29.3655C24.6645 28.9348 25.7313 28.4968 26.7986 28.0586L26.7989 28.0585C28.3083 27.4388 29.8188 26.8186 31.3391 26.2177C31.9773 25.9648 32.261 25.6275 32.261 24.9249C32.2397 22.7439 32.2423 20.5707 32.245 18.3937V18.3934V18.3931ZM1.60261 18.6949V18.6949V18.6948C1.60029 17.9791 1.59798 17.2638 1.59798 16.5496C1.59798 15.9172 1.59887 15.2849 1.59975 14.6525V14.6525C1.60241 12.7554 1.60507 10.8583 1.5838 8.96125C1.5838 8.39915 1.71144 8.25862 2.27875 8.51157C4.13668 9.29851 5.99461 10.0573 7.86673 10.8162C8.83801 11.2096 9.80575 11.5994 10.7735 11.9893L10.774 11.9895C11.742 12.3795 12.7101 12.7695 13.6816 13.163C13.8737 13.2391 14.0658 13.3209 14.2592 13.4033L14.2592 13.4034L14.2592 13.4034C14.4942 13.5035 14.7311 13.6044 14.9723 13.6969C15.3694 13.8515 15.4403 14.1607 15.4403 14.5401C15.4261 19.1631 15.4261 23.8001 15.4261 28.4371V28.438C15.4261 28.6155 15.4245 28.7946 15.423 28.9741V28.9742C15.4198 29.3348 15.4166 29.6976 15.4261 30.0541C15.4403 30.4897 15.2843 30.6162 14.8872 30.4194C13.5179 29.7192 12.088 29.1552 10.6593 28.5918L10.6592 28.5917C9.79433 28.2506 8.92984 27.9096 8.07947 27.5387C6.23572 26.7377 4.34942 26.007 2.46312 25.2903C1.85327 25.0514 1.56962 24.7703 1.5838 24.0677C1.6142 22.2805 1.6084 20.4862 1.60261 18.6949ZM30.7718 9.03151V16.6058C30.7718 17.4464 30.7702 18.2854 30.7686 19.1223C30.7655 20.7898 30.7623 22.449 30.7718 24.0958C30.7718 24.7563 30.4881 25.0514 29.9066 25.2762C28.5303 25.82 27.159 26.3838 25.7897 26.9467L25.7894 26.9468C24.8589 27.3293 23.9293 27.7115 22.9997 28.0867C21.9691 28.5083 20.9384 28.9174 19.9078 29.3265C19.3925 29.531 18.8772 29.7356 18.3619 29.9417C18.1066 30.0541 17.8513 30.1805 17.6102 30.3211C16.9578 30.6864 16.8869 30.6583 16.8869 29.8854C16.8869 29.3026 16.8905 28.7197 16.894 28.1368L16.894 28.1359C16.8976 27.5527 16.9011 26.9695 16.9011 26.3864C16.9011 25.4198 16.902 24.4541 16.9029 23.4888C16.9055 20.5949 16.9082 17.705 16.8869 14.8071C16.8727 14.1185 17.0997 13.7953 17.7662 13.5283C19.6314 12.7931 21.4823 12.0227 23.3341 11.252L23.3348 11.2517C24.1019 10.9325 24.8692 10.6132 25.6376 10.2962C26.1769 10.0784 26.7142 9.85859 27.251 9.63902L27.2511 9.63897L27.2518 9.63869C28.1689 9.26354 29.0846 8.88899 30.0059 8.52562C30.715 8.24457 30.7718 8.28673 30.7718 9.03151ZM26.3042 5.6308C27.3963 6.09453 28.4884 6.55827 29.7932 7.10631C28.4878 7.6403 27.3239 8.12419 26.1992 8.59182L26.1989 8.59193L26.1982 8.59225L25.5809 8.84883L25.5805 8.84898L25.5802 8.84914L25.5798 8.84929C23.2967 9.7766 21.0137 10.7039 18.7307 11.6453L16.5182 12.5727C16.3338 12.6571 16.1494 12.6571 15.965 12.5868C15.426 12.366 14.8906 12.1417 14.3423 11.9119L14.3416 11.9116L14.3414 11.9115C13.8079 11.688 13.2622 11.4592 12.6888 11.2237C13.4961 10.7666 14.2957 10.4478 15.076 10.1366L15.0761 10.1366L15.0761 10.1366C15.3513 10.0268 15.6242 9.91799 15.8941 9.8044C18.1634 8.86288 20.4468 7.93541 22.7302 7.00795C23.0389 6.87982 23.3488 6.7517 23.6595 6.62322L23.66 6.62302L23.6605 6.62282C24.4061 6.31459 25.1566 6.0043 25.9071 5.68701C26.0348 5.6308 26.1624 5.57459 26.3042 5.6308ZM4.63002 7.93956C4.01599 7.74606 3.38895 7.54845 2.78933 7.10631C3.20626 6.93457 3.61701 6.76283 4.02412 6.59261L4.02419 6.59258C4.84957 6.24747 5.66002 5.9086 6.47683 5.58864C7.2568 5.26546 8.03678 4.94931 8.81676 4.63316L8.81698 4.63307C9.59703 4.31689 10.3771 4.00071 11.1571 3.6775C11.7325 3.4386 12.3058 3.1955 12.8794 2.95226C13.7904 2.56596 14.7022 2.1793 15.6247 1.80851L15.6548 1.79589C15.9173 1.68603 16.2177 1.56026 16.5182 1.68204C17.2955 1.99661 18.0643 2.30281 18.9095 2.63942L18.9096 2.63946L19.6809 2.94677L15.6388 4.61902C14.5113 5.08274 13.3838 5.54296 12.2563 6.00317C11.1288 6.4634 10.0012 6.92362 8.8737 7.38736L6.53356 8.35699C6.00831 8.58149 5.5728 8.36878 5.14558 8.16013C4.98448 8.08144 4.82455 8.00334 4.66144 7.94946L4.63002 7.93956ZM10.5047 10.3384C9.72466 10.0152 8.94461 9.69198 7.96601 9.29851C8.36039 9.13196 8.74519 8.96905 9.12293 8.80913L9.13366 8.80459L9.13433 8.80431L9.13441 8.80428C10.4096 8.26439 11.6047 7.75848 12.8165 7.26089C13.9576 6.79739 15.0952 6.33037 16.2328 5.86335L16.2339 5.86291L16.2345 5.86267L16.2348 5.86253C17.3729 5.39533 18.511 4.92813 19.6525 4.46444C20.1064 4.28176 20.5602 4.09907 21.0141 3.90234C21.397 3.73371 21.7516 3.78992 22.1062 3.93044C22.5101 4.09224 22.914 4.26436 23.3495 4.44992C23.6327 4.57058 23.9292 4.69692 24.2477 4.82981C23.3542 5.22328 22.5742 5.56054 21.7941 5.88374C19.4824 6.85337 17.1706 7.80894 14.8446 8.76451C14.1276 9.06119 13.4105 9.34485 12.6959 9.62755L12.6959 9.62756L12.6957 9.62763L12.6955 9.62771C12.124 9.8538 11.5541 10.0793 10.9869 10.3103C10.8167 10.3806 10.6749 10.4087 10.5047 10.3384ZM22.0068 22.2838V17.9275C22.5032 18.3631 22.9996 18.5458 23.34 18.1102C23.6804 17.6465 23.3684 17.2249 22.9712 16.9017C22.8062 16.7633 22.6439 16.6164 22.4807 16.4687L22.4807 16.4687L22.4806 16.4686C22.2793 16.2864 22.0765 16.1028 21.865 15.9321C21.2835 15.4824 20.9857 15.4964 20.5885 16.1007C20.1472 16.7617 19.7281 17.4375 19.3098 18.112L19.3096 18.1124C19.15 18.3698 18.9905 18.627 18.8299 18.8831C18.603 19.2485 18.7022 19.5717 19.0426 19.7824C19.3972 20.0073 19.7659 19.9792 20.0354 19.5998C20.1772 19.403 20.3191 19.2063 20.5318 18.8971V20.8083C20.5318 20.9545 20.5312 21.1008 20.5307 21.247V21.247C20.5284 21.831 20.5261 22.4132 20.5602 22.9864C20.5885 23.3658 20.7729 23.7031 21.2693 23.7031C21.7515 23.7031 21.9217 23.3799 21.9784 22.9864C22.0125 22.8067 22.0102 22.6179 22.0079 22.4274V22.4272C22.0074 22.3795 22.0068 22.3316 22.0068 22.2838ZM27.2828 15.8331V20.1894C27.2828 20.2494 27.2845 20.3093 27.2863 20.369C27.2916 20.5473 27.2969 20.7236 27.2544 20.8921C27.1551 21.2434 26.9566 21.5525 26.5169 21.5104C26.1056 21.4682 25.907 21.2153 25.907 20.7937C25.9165 20.0729 25.9133 19.3584 25.9102 18.6418V18.6416L25.9102 18.6405C25.9086 18.2818 25.907 17.9225 25.907 17.5616V16.6763C25.6326 16.8032 25.5057 17.0061 25.3855 17.1982C25.3193 17.304 25.2551 17.4065 25.1695 17.4913C24.9142 17.7302 24.659 17.8708 24.3611 17.6459C24.0917 17.4211 23.808 17.1541 24.0491 16.7606L24.0491 16.7606L24.0491 16.7606C24.659 15.7628 25.2688 14.7651 25.9212 13.7955C26.2191 13.3459 26.6587 13.4021 27.0275 13.6691C27.2917 13.8676 27.5325 14.0952 27.7724 14.322L27.7724 14.322L27.7725 14.3221C27.906 14.4483 28.0393 14.5743 28.1763 14.6949C28.2095 14.7238 28.2435 14.7527 28.2777 14.7816L28.2777 14.7816C28.6086 15.0615 28.9502 15.3505 28.6159 15.8472C28.2887 16.32 27.8435 16.1045 27.3434 15.8624L27.2828 15.8331ZM28.7974 23.9172C29.0918 23.7925 29.4649 23.6346 29.3959 23.2113C29.4101 22.607 29.0272 22.34 28.4457 22.5508C27.6929 22.8275 26.9505 23.1248 26.2007 23.4251C26.0747 23.4755 25.9484 23.5261 25.8219 23.5767C24.2135 24.2316 22.5966 24.878 20.9843 25.5226C20.521 25.7078 20.058 25.8929 19.5957 26.078C19.227 26.2326 18.9291 26.4012 19.0284 26.893C19.156 27.5114 19.5248 27.7502 20.1772 27.4833C23.0421 26.3169 25.907 25.1365 28.7719 23.928C28.7803 23.9244 28.7888 23.9208 28.7974 23.9172Z" fill="#D1D2D4"/>
</g>
<defs>
<clipPath id="clip0">
<rect width="32.1522" height="32.1522" fill="white" transform="translate(0.108704 0.108398)"/>
</clipPath>
</defs>
</svg>
