<svg width="329" height="77" viewBox="0 0 329 77" fill="none" xmlns="http://www.w3.org/2000/svg">
<path fill-rule="evenodd" clip-rule="evenodd" d="M69.8809 55.7195C68.6959 55.1798 68.1573 53.7768 68.6959 52.6976C73.5434 42.5528 72.8971 30.1416 67.0801 20.6444C64.7102 16.6512 61.4785 13.0898 57.7082 10.3917C49.7368 4.45589 39.2877 2.29742 29.7004 4.45589C23.8834 5.64304 18.4973 8.34113 13.9729 12.2264C13.542 12.6581 12.788 12.6581 12.3571 12.1184C11.9262 11.6867 11.9262 10.9313 12.4648 10.4996C15.2656 7.90943 18.3895 5.64304 21.7289 3.91627C31.7471 -1.15613 44.0275 -1.26405 54.1534 3.37665C62.6635 7.26189 69.6654 14.3848 73.328 23.0187C77.7446 33.0556 77.5292 44.8192 72.8971 54.7482C72.4662 55.7195 71.0658 56.2591 69.8809 55.7195Z" fill="#492850"/>
<path fill-rule="evenodd" clip-rule="evenodd" d="M25.3914 65.2167L23.6678 64.3533C20.4361 62.7344 17.5276 60.3601 17.5276 55.8274V37.4804H16.0195C12.4647 37.4804 10.5257 35.214 9.23301 32.5159L8.58667 31.1129H31.6393C35.1941 31.1129 37.1331 33.3793 38.4258 36.0774L39.0721 37.4804H27.4381H25.3914V44.8192H38.4258C41.9806 44.8192 43.9196 47.1935 45.2123 49.7836L45.8586 51.1866H25.3914V65.2167Z" fill="#492850"/>
<path fill-rule="evenodd" clip-rule="evenodd" d="M58.6776 61.8713L51.0293 46.6541L42.627 29.7101C41.3343 27.1199 39.503 24.7456 35.8405 24.7456H9.5562C6.00136 24.7456 4.06236 22.4792 2.76969 19.7812L2.12335 18.4861H20.5439H40.0417C43.7042 18.4861 45.5355 20.8604 46.8282 23.4506L55.2305 40.3945L68.0495 65.6486H65.895C63.5251 65.6486 60.2935 65.2169 58.6776 61.8713Z" fill="#492850"/>
<path d="M275.405 24.3669H268.061V51.2954H275.405V24.3669Z" fill="#F05A3F"/>
<path fill-rule="evenodd" clip-rule="evenodd" d="M89.3535 51.2954V34.741C89.3535 29.0022 94.576 24.3669 100.995 24.3669H117.533H123.626L123.082 25.4706C122.103 27.4571 120.688 29.2229 117.968 29.2229H110.679H102.845C99.3633 29.2229 96.6432 31.7612 96.6432 34.741V35.4032H111.223H117.316L116.772 36.5068C115.792 38.4934 114.378 40.2592 111.658 40.2592H102.083H96.6432V51.2954H89.3535Z" fill="#492850"/>
<path fill-rule="evenodd" clip-rule="evenodd" d="M182.407 51.2954H164.011H164.23C161.493 51.2954 160.069 49.5296 159.084 47.5431L158.536 46.4395H163.902H179.998C181.969 46.4395 183.502 45.0048 183.502 43.3493C183.502 41.5835 181.969 40.2592 179.998 40.2592H177.479H165.435C160.507 40.2592 156.675 36.7276 156.675 32.3131C156.675 27.8985 160.507 24.3669 165.435 24.3669H183.502C186.239 24.3669 187.663 26.1327 188.648 28.1193L189.196 29.2229H183.721H167.625C165.654 29.2229 164.121 30.6576 164.121 32.3131C164.121 33.9685 165.763 35.4032 167.625 35.4032H182.188C187.115 35.4032 190.948 38.9348 190.948 43.3493C190.948 47.7638 187.334 51.2954 182.407 51.2954Z" fill="#492850"/>
<path fill-rule="evenodd" clip-rule="evenodd" d="M206.815 51.2954V29.2229H199.161H197.94C195.167 29.2229 193.725 27.4571 192.726 25.4706L192.172 24.3669H207.148H213.805H228.892L228.337 25.4706C227.339 27.4571 225.897 29.2229 223.123 29.2229H214.248V51.2954H206.815Z" fill="#492850"/>
<path fill-rule="evenodd" clip-rule="evenodd" d="M148.666 51.2954L145.045 45.1151H139.559H133.196L133.744 44.0115C134.732 42.025 136.158 40.2592 138.901 40.2592H139.669H142.302L137.036 31.3198L125.406 51.2954H117.506L133.196 24.3669H140.986L156.675 51.2954H148.666Z" fill="#492850"/>
<path fill-rule="evenodd" clip-rule="evenodd" d="M304.192 51.2954L300.545 45.1151H293.25L293.802 44.0115C294.797 42.025 296.234 40.2592 298.997 40.2592H302.203C305.629 40.1488 308.392 37.7208 308.392 34.741C308.392 31.6509 305.519 29.2229 302.092 29.2229H290.155V51.2954H282.749V24.3669H303.971C310.492 24.3669 315.798 29.0022 315.798 34.741C315.798 39.1555 312.703 42.9079 308.282 44.3426L312.371 51.2954H304.192V51.2954Z" fill="#F05A3F"/>
<path fill-rule="evenodd" clip-rule="evenodd" d="M255.155 51.2954L251.535 45.1151H246.049H239.685L240.234 44.0115C241.221 42.025 242.648 40.2592 245.391 40.2592H246.159H248.792L243.525 31.3198L231.896 51.2954H223.996L239.685 24.3669H247.475L263.165 51.2954H255.155Z" fill="#F05A3F"/>
<path fill-rule="evenodd" clip-rule="evenodd" d="M28.9463 75.9013C17.0968 73.2032 6.9709 64.4614 2.55428 53.1294C-0.0310626 46.5461 -0.677397 39.2073 0.722994 32.1923C0.830717 31.5448 1.47705 31.1131 2.01566 31.221C2.662 31.3289 3.09289 31.8685 2.98517 32.5161C2.23111 39.2073 3.30833 46.0065 6.10912 52.0502C10.3103 61.0078 18.3895 68.1308 27.869 70.9368C34.5478 72.8794 41.873 72.8794 48.5518 70.613C50.2753 70.0734 51.9989 69.3179 53.7224 68.4545C54.9074 67.9149 56.3078 68.3466 56.8464 69.5338C57.385 70.7209 56.9541 72.016 55.7692 72.6636C53.9379 73.6349 52.1066 74.3903 50.1676 75.0379C43.2734 77.3043 35.8405 77.628 28.9463 75.9013Z" fill="#F05A3F"/>
<path d="M315.798 15.7879H321.076V17.0829H319.353V21.184H317.629V17.0829H315.906V15.7879H315.798ZM326.893 21.184V18.4859L325.493 20.6444H324.739L323.338 18.4859V21.0761H321.723V15.6799H323.123L325.17 18.7018L327.109 15.6799H328.509V21.0761H326.893V21.184Z" fill="#492850"/>
</svg>
