<svg width="60" height="60" viewBox="0 0 60 60" fill="none" xmlns="http://www.w3.org/2000/svg">
<path fill-rule="evenodd" clip-rule="evenodd" d="M26.6889 9.51717V22.3971H27.4012L27.4099 22.3971H32.579L32.5877 22.3971H33.3001V14.5363C33.2979 14.4983 33.2979 14.4603 33.3001 14.4227V9.51716L26.6889 9.51717ZM35.3633 17.7434V15.1541C37.9589 14.0108 39.6403 13.2688 40.7356 12.7677C40.86 13.7246 41.2924 14.5877 41.9303 15.255L35.3633 17.7434ZM44.3448 7.82863C42.8924 8.09954 41.684 9.07242 41.0916 10.3773C40.3569 10.706 38.5604 11.4992 36.7145 12.3142L35.3633 12.9109V9.51693C35.8088 9.50744 36.1976 9.21243 36.3394 8.78936L38.6134 1.32383C38.7798 0.783492 38.4692 0.210069 37.9257 0.0446581C37.371 -0.120753 36.8053 0.188014 36.6389 0.728355L34.5868 7.46608H34.3371L34.3317 7.46606H25.6683L25.6629 7.46608H25.4243L23.3722 0.728355C23.2058 0.188014 22.64 -0.120753 22.0854 0.0446581C21.5419 0.210069 21.2313 0.783492 21.3977 1.32383L23.6717 8.78936C23.8026 9.21242 24.1912 9.50743 24.6367 9.51693V23.4227C24.6367 23.9851 25.1026 24.4482 25.6683 24.4482H26.3783V34.2075H25.4021C24.8364 34.2075 24.3705 34.6707 24.3705 35.2331V36.2145H22.3739V32.5313C22.3739 31.9689 21.908 31.5057 21.3422 31.5057H17.4315C16.9597 27.1491 13.2374 23.7534 8.74099 23.7534C3.9157 23.7534 0 27.6571 0 32.443V51.2998C0 53.9611 1.20521 56.344 3.10231 57.9384H1.03161C0.46589 57.9384 0 58.4015 0 58.9639C0 59.5263 0.46589 59.9894 1.03161 59.9894H8.70576C8.7175 59.9895 8.72924 59.9895 8.74099 59.9895C8.75264 59.9895 8.76428 59.9895 8.77593 59.9894H51.2238C51.2355 59.9895 51.2473 59.9895 51.259 59.9895C51.2707 59.9895 51.2823 59.9895 51.2939 59.9894H58.9573C59.5341 59.9894 59.9889 59.5263 60 58.9639C60 58.4015 59.5341 57.9384 58.9684 57.9384H56.8895C58.7859 56.344 59.9938 53.9611 60 51.2998V32.443C60 27.6461 56.0843 23.7534 51.259 23.7534C46.7529 23.7534 43.04 27.1578 42.5685 31.5057H38.6467C38.081 31.5057 37.6151 31.9689 37.6151 32.5313V36.2145H35.6073V35.2331C35.6073 34.6707 35.1414 34.2075 34.5757 34.2075H33.6107V24.4482H34.3317C34.8974 24.4482 35.3633 23.9851 35.3633 23.4227V19.9395L44.2948 16.5552C44.5777 16.6113 44.8701 16.6407 45.1692 16.6407C47.6317 16.6407 49.6395 14.6448 49.6395 12.1967C49.6395 12.0709 49.6342 11.9463 49.6238 11.8231L53.2224 2.44851C53.4221 1.9192 53.1558 1.32372 52.6234 1.12523C52.0909 0.926736 51.4919 1.19139 51.2923 1.72071L48.4342 9.16615C47.8983 8.59593 47.2136 8.16544 46.4428 7.93683L47.8647 2.33825C48.0089 1.78688 47.6761 1.23551 47.1214 1.09215C46.5668 0.948799 46.0011 1.27962 45.868 1.83099L44.3448 7.82863ZM45.6249 57.9384C43.9552 56.536 42.8191 54.5235 42.5697 52.2482H38.6467C38.081 52.2482 37.6151 51.7851 37.6151 51.2227V47.5286H35.6073V48.51C35.6073 49.0724 35.1525 49.5356 34.5868 49.5356H25.4021C24.8364 49.5356 24.3705 49.0724 24.3705 48.51V47.5286H22.3739V51.2227C22.3739 51.7851 21.908 52.2482 21.3422 52.2482H17.4284C17.1749 54.5235 16.0395 56.536 14.3714 57.9384H45.6249ZM47.5702 11.9104C47.5583 11.8595 47.5503 11.8075 47.5462 11.755C47.3364 10.6412 46.3486 9.79275 45.1692 9.79275L45.1665 9.79275C44.1126 9.79389 43.2121 10.4724 42.8837 11.4121C42.8804 11.4237 42.8768 11.4353 42.873 11.4468L42.8729 11.4471L42.8729 11.4473L42.8727 11.4477C42.8646 11.4738 42.8569 11.4984 42.8482 11.5223C42.7849 11.7364 42.751 11.9628 42.751 12.1967C42.751 13.2476 43.4366 14.1455 44.3855 14.4706C44.4678 14.4838 44.548 14.5068 44.6243 14.5389C44.7995 14.5793 44.9819 14.6007 45.1692 14.6007C46.5003 14.6007 47.5873 13.52 47.5873 12.1967C47.5873 12.0999 47.5815 12.0043 47.5702 11.9104ZM37.6151 45.4775V38.2656H35.6073V45.4775H37.6151ZM39.6783 46.503L39.6783 50.1971H42.518V33.5568H39.6783L39.6783 37.24V46.503ZM31.5474 34.2075V24.4482H28.4415V34.2075H31.5474ZM24.3705 45.4775V38.2656H22.3739V45.4775H24.3705ZM20.3106 37.2302V33.5568H17.482V50.1971H20.3106V46.5129L20.3106 46.503V37.24L20.3106 37.2302ZM13.2113 56.2277C14.55 55.0264 15.3984 53.295 15.4184 51.3694C15.4113 51.3214 15.4077 51.2725 15.4077 51.2227V32.5313C15.4077 32.4813 15.4114 32.432 15.4185 32.3838C15.4015 30.4541 14.5524 28.7185 13.2113 27.5151V56.2277ZM6.7846 26.095C7.40355 25.9062 8.06053 25.8045 8.74099 25.8045C9.13295 25.8045 9.51711 25.8382 9.89071 25.9029C10.3189 25.9785 10.7405 26.0964 11.1481 26.2568V57.4863C10.7678 57.6359 10.3754 57.7486 9.97681 57.8244C9.57622 57.8992 9.16312 57.9383 8.74099 57.9383C8.03152 57.9383 7.34757 57.8278 6.70564 57.6232C6.57683 57.5816 6.44915 57.536 6.3228 57.4863V26.2568C6.47492 26.1969 6.62897 26.143 6.7846 26.095ZM4.27066 27.5151C2.91586 28.7308 2.06323 30.4896 2.06323 32.443V51.2998C2.06323 53.2532 2.91586 55.012 4.27066 56.2277V27.5151ZM26.4337 36.2586V47.4845H33.5552V36.2586H26.4337ZM44.5812 51.2998V51.2247L44.5813 51.2227V32.5313L44.5812 32.522V32.443C44.5812 30.4896 45.4339 28.7308 46.7887 27.5151V56.2277C45.4339 55.012 44.5812 53.2532 44.5812 51.2998ZM52.4949 57.8244C52.0943 57.8992 51.6812 57.9383 51.259 57.9383C50.5495 57.9383 49.8655 57.8278 49.2235 57.6231C49.0947 57.5816 48.9671 57.536 48.8408 57.4863V26.2568C48.9929 26.197 49.1469 26.1431 49.3024 26.095C49.9214 25.9062 50.5785 25.8045 51.259 25.8045C51.7152 25.8045 52.1611 25.8505 52.5922 25.938C52.9573 26.0131 53.3168 26.1194 53.6661 26.2568V57.4863C53.2859 57.6359 52.8935 57.7486 52.4949 57.8244ZM55.7293 56.2277C57.0841 55.012 57.9368 53.2532 57.9368 51.2998V32.443C57.9368 30.4917 57.0828 28.7347 55.7293 27.5191V56.2277Z" fill="#D1D2D4"/>
</svg>
