<svg width="59" height="59" viewBox="0 0 59 59" fill="none" xmlns="http://www.w3.org/2000/svg">
<path fill-rule="evenodd" clip-rule="evenodd" d="M4.47034 29.4999C4.47034 43.3045 15.6954 54.5405 29.5 54.5405C43.3045 54.5405 54.5406 43.3045 54.5406 29.4999C54.5406 15.6954 43.3045 4.47028 29.5109 4.45935C15.7064 4.45935 4.47034 15.6954 4.47034 29.4999ZM6.49238 29.4999C6.49238 16.8102 16.8103 6.49233 29.5 6.49233C42.1897 6.49233 52.5076 16.8102 52.5076 29.4999C52.5076 42.1896 42.1897 52.5075 29.5 52.5075C16.8103 52.5075 6.49238 42.1896 6.49238 29.4999ZM32.9757 45.5889C33.1178 46.0042 33.5113 46.2775 33.9376 46.2775C34.036 46.2775 34.1234 46.2665 34.2327 46.2447C41.6979 44.1461 46.9115 37.2602 46.9115 29.5109C46.9115 19.9144 39.1075 12.1104 29.5109 12.1104C19.9144 12.1104 12.1104 19.9144 12.1104 29.5109C12.1104 37.2602 17.324 44.1461 24.7892 46.2447C25.3138 46.3868 25.8494 46.1026 26.0243 45.5889L28.2977 38.8123H30.7023L32.9757 45.5889ZM31.4346 36.7793H27.5763C27.1391 36.7793 26.7457 37.0635 26.6254 37.4679L24.4285 43.9931C18.3296 41.8508 14.1434 36.0251 14.1434 29.4999C14.1434 21.0292 21.0402 14.1324 29.5109 14.1324C37.9817 14.1324 44.8785 21.0292 44.8785 29.4999C44.8785 36.0251 40.6923 41.8508 34.5934 43.9931L32.3965 37.4679C32.2544 37.0526 31.8718 36.7793 31.4346 36.7793Z" fill="#D1D2D4"/>
<path d="M22.625 53.5351C22.5157 53.5351 22.4064 53.5132 22.2971 53.4804C21.7616 53.3055 21.4774 52.7263 21.6632 52.1907L26.6145 37.468C26.7566 37.0527 27.1391 36.7794 27.5763 36.7794H31.4346C31.8718 36.7794 32.2543 37.0527 32.3964 37.468L37.3477 52.1907C37.5226 52.7263 37.2384 53.2946 36.7138 53.4804C36.1782 53.6662 35.6098 53.3711 35.424 52.8465L30.7023 38.8124H28.2977L23.5759 52.8465C23.4338 53.2728 23.0404 53.5351 22.625 53.5351Z" fill="#D1D2D4"/>
<path fill-rule="evenodd" clip-rule="evenodd" d="M5.62894 59H53.3711C56.4752 59 59 56.4752 58.9891 53.3601V5.62894C58.9891 2.52482 56.4642 0 53.3601 0H5.62894C2.52482 0 0 2.52482 0 5.62894V53.3711C0 56.4752 2.52482 59 5.62894 59ZM2.02205 5.63987C2.02205 3.65061 3.63968 2.03298 5.62894 2.03298V2.02205H53.3601C55.3494 2.02205 56.967 3.63968 56.967 5.62894V53.3711C56.967 55.3603 55.3494 56.978 53.3601 56.978H5.62894C3.63968 56.978 2.02205 55.3603 2.02205 53.3711V5.63987ZM24.4613 30.5165C24.9313 32.8664 27.008 34.648 29.5 34.648C31.992 34.648 34.0687 32.8664 34.5387 30.5165H38.1128C38.6702 30.5165 39.1293 30.0574 39.1293 29.5C39.1293 28.9426 38.6702 28.4835 38.1128 28.4835H33.6425C33.085 28.4835 32.626 28.9426 32.626 29.5C32.626 31.216 31.2269 32.615 29.5109 32.615C27.7949 32.615 26.3959 31.216 26.3959 29.5C26.3959 28.9426 25.9368 28.4835 25.3794 28.4835H20.909C20.3516 28.4835 19.8925 28.9426 19.8925 29.5C19.8925 30.0574 20.3516 30.5165 20.909 30.5165H24.4613ZM51.9393 8.80954C51.6769 8.80954 51.4255 8.71117 51.2179 8.51443C50.8244 8.12095 50.8244 7.47608 51.2179 7.0826L53.2508 5.04963C53.6443 4.65615 54.2892 4.65615 54.6827 5.04963C55.0762 5.4431 55.0762 6.08797 54.6827 6.48145L52.6497 8.51443C52.453 8.70024 52.2016 8.80954 51.9393 8.80954ZM6.3394 8.51437C6.54707 8.71111 6.79846 8.80948 7.06078 8.80948C7.3231 8.80948 7.58542 8.70018 7.78216 8.50344C8.17564 8.10996 8.17564 7.46509 7.78216 7.07161L5.74918 5.03864C5.3557 4.64516 4.71084 4.64516 4.31736 5.03864C3.92388 5.43212 3.92388 6.07699 4.31736 6.47047L6.3394 8.51437ZM53.9722 54.2673C53.7099 54.2673 53.4585 54.1689 53.2508 53.9722L51.2179 51.9392C50.8244 51.5457 50.8244 50.9009 51.2179 50.5074C51.6114 50.1139 52.2562 50.1139 52.6497 50.5074L54.6827 52.5404C55.0762 52.9339 55.0762 53.5787 54.6827 53.9722C54.4859 54.158 54.2345 54.2673 53.9722 54.2673ZM4.3064 53.9721C4.51407 54.1689 4.76546 54.2673 5.02778 54.2673C5.2901 54.2673 5.55242 54.158 5.74916 53.9612L7.78213 51.9282C8.17561 51.5348 8.17561 50.8899 7.78213 50.4964C7.38865 50.1029 6.74378 50.1029 6.35031 50.4964L4.3064 52.5403C3.91292 52.9338 3.91292 53.5787 4.3064 53.9721Z" fill="#D1D2D4"/>
<path d="M29.5 14.1324C28.9426 14.1324 28.4835 13.6733 28.4835 13.1159V5.47584C28.4835 4.91841 28.9426 4.45935 29.5 4.45935C30.0574 4.45935 30.5165 4.91841 30.5165 5.47584V13.1159C30.5165 13.6733 30.0574 14.1324 29.5 14.1324Z" fill="#D1D2D4"/>
<path d="M37.6975 16.3294C37.5226 16.3294 37.3477 16.2856 37.1947 16.1982C36.7138 15.914 36.5389 15.3019 36.8231 14.8101L40.6377 8.19745C40.9218 7.71654 41.5339 7.54166 42.0258 7.82584C42.5067 8.11001 42.6816 8.72209 42.3974 9.21394L38.5828 15.8266C38.3861 16.1435 38.0473 16.3294 37.6975 16.3294Z" fill="#D1D2D4"/>
<path d="M43.6871 22.3299C43.3374 22.3299 42.9985 22.1441 42.8127 21.8271C42.5285 21.3462 42.7034 20.7232 43.1843 20.439L49.797 16.6245C50.2888 16.3403 50.9009 16.5043 51.1851 16.9961C51.4693 17.477 51.2944 18.1 50.8135 18.3842L44.2008 22.1878C44.0369 22.2862 43.862 22.3299 43.6871 22.3299Z" fill="#D1D2D4"/>
<path d="M53.5241 30.5165H45.884C45.3266 30.5165 44.8676 30.0574 44.8676 29.5C44.8676 28.9426 45.3266 28.4835 45.884 28.4835H53.5241C54.0815 28.4835 54.5406 28.9426 54.5406 29.5C54.5406 30.0574 54.0815 30.5165 53.5241 30.5165Z" fill="#D1D2D4"/>
<path d="M50.2998 42.5286C50.1249 42.5286 49.95 42.4849 49.797 42.3974L43.1843 38.5829C42.7034 38.2987 42.5285 37.6866 42.8127 37.1948C43.0969 36.7138 43.709 36.539 44.2008 36.8231L50.8135 40.6377C51.2944 40.9219 51.4693 41.534 51.1851 42.0258C50.9993 42.3428 50.6495 42.5286 50.2998 42.5286Z" fill="#D1D2D4"/>
<path d="M21.3135 16.3293C20.9637 16.3293 20.6249 16.1435 20.4391 15.8265L16.6136 9.20295C16.3294 8.72204 16.5043 8.09903 16.9852 7.81485C17.477 7.53067 18.0891 7.70555 18.3733 8.18647L22.1879 14.7991C22.472 15.28 22.2972 15.903 21.8162 16.1872C21.6523 16.2856 21.4774 16.3293 21.3135 16.3293Z" fill="#D1D2D4"/>
<path d="M15.3129 22.3299C15.138 22.3299 14.9631 22.2861 14.8101 22.1987L8.19745 18.3841C7.71654 18.1 7.54166 17.4879 7.82584 16.996C8.11001 16.5151 8.72209 16.3402 9.21394 16.6244L15.8266 20.439C16.3075 20.7232 16.4824 21.3352 16.1982 21.8271C16.0015 22.144 15.6626 22.3299 15.3129 22.3299Z" fill="#D1D2D4"/>
<path d="M13.116 30.5165H5.47593C4.9185 30.5165 4.45944 30.0574 4.45944 29.5C4.45944 28.9426 4.9185 28.4835 5.47593 28.4835H13.116C13.6734 28.4835 14.1325 28.9426 14.1325 29.5C14.1325 30.0574 13.6734 30.5165 13.116 30.5165Z" fill="#D1D2D4"/>
<path d="M8.70023 42.5285C8.35047 42.5285 8.01164 42.3427 7.82584 42.0258C7.54166 41.5448 7.71654 40.9218 8.19745 40.6377L14.8101 36.8231C15.291 36.5389 15.914 36.7029 16.1982 37.1947C16.4824 37.6756 16.3075 38.2986 15.8266 38.5828L9.21394 42.3974C9.04999 42.4848 8.87511 42.5285 8.70023 42.5285Z" fill="#D1D2D4"/>
</svg>
