<svg width="70" height="59" viewBox="0 0 70 59" fill="none" xmlns="http://www.w3.org/2000/svg">
<path fill-rule="evenodd" clip-rule="evenodd" d="M63.4989 29.2086C65.2531 26.5129 66.2215 23.3336 66.2279 20.0688C66.2282 20.054 66.2282 20.039 66.2279 20.0239V15.1075C66.2279 14.4775 65.7085 13.9587 65.0777 13.9587H64.9788V7.97993L65.894 7.06582C66.1042 6.84347 66.2279 6.55935 66.2279 6.25053V1.14881C66.2279 0.518819 65.7085 0 65.0777 0C62.6784 0 60.4152 1.27234 59.1784 3.33526C53.9846 11.9978 46.2803 17.2186 36.2497 18.8875H23.9435C23.3127 18.8875 22.7933 19.4063 22.7933 20.0363C22.7933 20.6663 23.3127 21.1851 23.9435 21.1851H63.8905C63.606 24.8045 61.9488 28.2262 59.265 30.7091C58.8074 31.1415 58.7703 31.8579 59.2032 32.3273C59.4258 32.5744 59.735 32.6979 60.0442 32.6979C60.3286 32.6979 60.6007 32.5867 60.811 32.3891C61.2686 31.9682 61.7004 31.5234 62.1052 31.0575L67.5883 36.6509L67.6873 43.8649L53.5314 35.0495C53.3954 34.9059 53.2244 34.801 53.0385 34.7426L45.3516 29.9557C44.8074 29.6221 44.1025 29.7951 43.7686 30.3262C43.4346 30.8698 43.6078 31.5739 44.1396 31.9074L50.2265 35.6986C42.2157 39.2506 33.3363 42.2918 23.7827 44.7543C23.1643 44.9149 22.7933 45.5325 22.9541 46.1502C23.0901 46.669 23.5601 47.0149 24.0671 47.0149C24.1537 47.0149 24.2527 47.0025 24.3516 46.9655C34.5915 44.3361 44.0769 41.0356 52.5659 37.1558L68.2562 46.9284C68.4417 47.0396 68.6519 47.1014 68.8622 47.1014C69.0477 47.1014 69.2456 47.052 69.4187 46.9531C69.7774 46.7431 70.0123 46.3602 70 45.9402L69.8639 36.1691C69.8639 35.8727 69.7526 35.5885 69.5424 35.3785L63.4989 29.2086ZM63.9399 16.2563V18.8875L44.6962 18.8875C53.0937 15.4287 58.189 9.46226 61.1572 4.50878C61.7756 3.47114 62.7897 2.72997 63.9399 2.43351V5.76877L63.0247 6.68288C62.8145 6.90523 62.6908 7.18935 62.6908 7.49817V15.1075C62.6908 15.7375 63.2102 16.2563 63.841 16.2563H63.9399ZM33.924 33.4885H37.5353C38.1661 33.4885 38.6731 32.9821 38.6855 32.3274V25.348C38.6855 24.718 38.1661 24.1992 37.5353 24.1992H33.924C33.2933 24.1992 32.7738 24.718 32.7738 25.348C32.7738 25.978 33.2933 26.4968 33.924 26.4968H36.3852V31.1909H33.924C33.2933 31.1909 32.7738 31.7097 32.7738 32.3397C32.7738 32.9697 33.2933 33.4885 33.924 33.4885ZM28.9152 33.4885H25.3039C24.6731 33.4885 24.1537 32.9697 24.1537 32.3397C24.1537 31.7097 24.6731 31.1909 25.3039 31.1909H27.765V26.4968H25.3039C24.6731 26.4968 24.1537 25.978 24.1537 25.348C24.1537 24.718 24.6731 24.1992 25.3039 24.1992H28.9152C29.5459 24.1992 30.0654 24.718 30.0654 25.348V32.3274C30.0654 32.9821 29.5459 33.4885 28.9152 33.4885ZM12.8375 58.4412C13.0106 58.54 13.2085 58.5895 13.4064 58.5895C13.6042 58.5895 13.8145 58.5277 13.9876 58.4289C16.8074 56.7612 18.5512 53.7101 18.5512 50.4613C18.5512 47.5584 17.2279 44.8778 14.9152 43.1114C14.6926 42.9384 14.5565 42.6667 14.5565 42.3825V24.2609C14.5565 23.9768 14.6802 23.7051 14.9152 23.5321C17.2279 21.7533 18.5512 19.0851 18.5512 16.1822C18.5512 12.9334 16.8074 9.86989 13.9876 8.20226C13.6413 7.99227 13.1961 7.97991 12.8375 8.18991C12.4788 8.39991 12.2562 8.78285 12.2562 9.19049V14.0822H6.29505V9.20284C6.29505 8.78285 6.07244 8.39991 5.71378 8.20226C5.35512 8.00462 4.92226 8.00462 4.5636 8.21462C1.74382 9.88225 0 12.9334 0 16.1822C0 19.0728 1.32332 21.7533 3.63604 23.5321C3.85866 23.7051 3.9947 23.9768 3.9947 24.2609V42.3825C3.9947 42.6667 3.87102 42.9384 3.63604 43.1114C1.32332 44.8778 0 47.5584 0 50.4613C0 53.7101 1.74382 56.7612 4.5636 58.4289C4.90989 58.6389 5.35512 58.6389 5.71378 58.4412C6.07244 58.2312 6.29505 57.8483 6.29505 57.4406V52.5489H12.2562V57.4406C12.2562 57.8606 12.4788 58.2312 12.8375 58.4412ZM13.4064 50.2636H5.14488C4.51413 50.2636 3.9947 50.7701 3.9947 51.4125V55.0071C2.90636 53.7595 2.28799 52.1413 2.28799 50.4613C2.28799 48.2872 3.27738 46.2737 5.0212 44.9396C5.81272 44.3343 6.28268 43.3708 6.28268 42.3825V24.2609C6.28268 23.2604 5.81272 22.3092 5.0212 21.7039C3.28975 20.3698 2.28799 18.3563 2.28799 16.1822C2.28799 14.5022 2.91873 12.884 3.9947 11.6363V15.231C3.9947 15.861 4.51413 16.3798 5.14488 16.3798H13.4064C14.0371 16.3798 14.5565 15.861 14.5565 15.231V11.6363C15.6449 12.884 16.2632 14.5022 16.2632 16.1822C16.2632 18.3563 15.2739 20.3698 13.53 21.7039C12.7385 22.3092 12.2685 23.2727 12.2685 24.2609V42.3825C12.2685 43.3831 12.7385 44.3343 13.53 44.9396C15.2615 46.2737 16.2632 48.2872 16.2632 50.4613C16.2632 52.1413 15.6325 53.7595 14.5565 55.0071V51.4125C14.5565 50.7825 14.0371 50.2636 13.4064 50.2636Z" fill="#D1D2D4"/>
</svg>
