<svg width="55" height="60" viewBox="0 0 55 60" fill="none" xmlns="http://www.w3.org/2000/svg">
<path fill-rule="evenodd" clip-rule="evenodd" d="M24.1407 13.0279C23.1757 13.29 22.2573 13.6672 21.4012 14.144C21.3749 14.1629 21.3475 14.1806 21.3189 14.197C19.8232 15.0412 18.5426 16.1839 17.4977 17.5841C17.4647 17.6301 17.4285 17.6722 17.3895 17.7103C16.5546 18.8706 15.9112 20.1907 15.5102 21.63C17.7538 26.1084 22.3638 28.9808 27.3529 28.9808C32.342 28.9808 36.9521 26.1084 39.1956 21.63C38.7948 20.1909 38.1514 18.8709 37.3167 17.7106C37.281 17.6752 37.2481 17.6365 37.2184 17.5944C36.1735 16.1942 34.8929 15.0515 33.3972 14.2073C33.3526 14.1817 33.3107 14.1529 33.2717 14.1213C32.4268 13.6554 31.5236 13.2875 30.5782 13.0304C30.5341 13.0246 30.4902 13.0154 30.4468 13.0027C29.5607 12.7747 28.6895 12.6437 27.8205 12.61C27.7689 12.6081 27.7173 12.6064 27.6655 12.6051C27.568 12.6027 27.4703 12.6014 27.3723 12.6012C26.3516 12.6009 25.331 12.7347 24.2898 13.0027C24.2374 13.0144 24.1884 13.0228 24.1407 13.0279ZM31.4836 11.3115C30.4034 6.81755 28.4683 1.2266 28.277 0.673917L28.277 0.673864L28.2647 0.638298C28.1315 0.257378 27.773 0 27.3632 0C26.9534 0 26.5948 0.257378 26.4617 0.638298L26.4491 0.674496L26.4491 0.674523L26.4491 0.674605C26.2566 1.23078 24.3253 6.81064 23.2363 11.3009C22.3313 11.575 21.4642 11.9375 20.6449 12.3784L4.94812 10.5113C4.90714 10.501 4.87641 10.501 4.83543 10.501H1.98744C1.5879 10.501 1.23959 10.7481 1.09617 11.1187C0.952742 11.4894 1.05519 11.9012 1.35228 12.1688L4.22075 14.7426C4.33344 14.8456 4.46662 14.9176 4.62029 14.9588L15.1626 17.6097C13.8685 19.7615 13.1233 22.2826 13.1233 24.976C13.1233 26.8188 13.4716 28.6101 14.1477 30.2985C14.3424 30.7927 14.8956 31.0295 15.3873 30.8339C15.879 30.6383 16.1147 30.0823 15.92 29.5882C15.3361 28.116 15.039 26.5717 15.039 24.976C15.039 24.8284 15.0416 24.6815 15.0467 24.5352C17.8637 28.4656 22.4527 30.8957 27.3529 30.8957C32.2532 30.8957 36.8422 28.4656 39.6592 24.5352C39.6643 24.6815 39.6669 24.8284 39.6669 24.976C39.6669 26.5923 39.3596 28.1777 38.7551 29.6602C38.5605 30.1441 38.7961 30.7104 39.2776 30.906C39.3903 30.9574 39.5132 30.978 39.6362 30.978C40.005 30.978 40.3635 30.7515 40.4865 30.3809C41.1831 28.6616 41.5416 26.8497 41.5416 24.976C41.5416 23.8072 41.4013 22.6709 41.1367 21.5831C41.1327 21.5575 41.1276 21.5319 41.1216 21.5065C40.7759 20.1123 40.2334 18.81 39.5284 17.6263L50.0959 14.9691C50.2393 14.9279 50.3827 14.8559 50.4954 14.7529L53.3639 12.1792C53.661 11.9218 53.7634 11.4997 53.62 11.1291C53.4766 10.7584 53.118 10.5113 52.7287 10.5113H49.8807C49.8602 10.5113 49.8423 10.5139 49.8244 10.5165C49.8065 10.5191 49.7885 10.5216 49.768 10.5216L34.065 12.3895C33.2469 11.9481 32.3827 11.586 31.4836 11.3115ZM25.4146 10.8261C26.752 10.635 28.0523 10.6399 29.3916 10.8408C28.7769 8.46259 27.9676 5.84763 27.3529 3.95333C26.7383 5.84745 25.9291 8.46208 25.3145 10.8401L25.353 10.8346L25.4146 10.8261ZM4.48711 12.4262L18.2383 14.0108C17.548 14.59 16.913 15.2336 16.3426 15.9324L5.31692 13.1675L4.48711 12.4262ZM38.3547 15.9448L49.389 13.1778L50.2188 12.4365H49.9217L36.4652 14.0214C37.1523 14.5994 37.7854 15.2431 38.3547 15.9448ZM27.3529 39.2554C25.2631 39.2554 23.2449 38.8024 21.3496 37.9273C20.8784 37.7008 20.6633 37.1345 20.8886 36.661C21.114 36.1874 21.6775 35.9712 22.1487 36.1977C23.7776 36.9595 25.5294 37.3507 27.3427 37.3507C29.2277 37.3507 31.0307 36.9389 32.7108 36.1153C33.1821 35.8888 33.7558 36.0844 33.9812 36.558C34.2065 37.0316 34.0119 37.6081 33.5406 37.8346C31.6147 38.7715 29.5248 39.2554 27.3529 39.2554ZM32.5777 22.2889C32.2396 22.2889 31.9118 22.1036 31.7376 21.7844C30.8771 20.1475 29.197 19.1283 27.353 19.1283C25.5089 19.1283 23.8288 20.1475 22.9683 21.7844C22.7224 22.2477 22.1487 22.433 21.6877 22.1859C21.2267 21.9389 21.0423 21.3623 21.2882 20.8991C22.4868 18.6341 24.8021 17.2237 27.353 17.2237C29.9038 17.2237 32.2191 18.6341 33.4177 20.8991C33.6636 21.3623 33.4894 21.9389 33.0182 22.1859C32.885 22.2477 32.7313 22.2889 32.5777 22.2889ZM46.3463 32.2032C44.3179 32.2032 42.6685 30.5456 42.6685 28.5072C42.6685 26.4688 44.3179 24.8113 46.3463 24.8113C48.3748 24.8113 50.0241 26.4688 50.0241 28.5072C50.0241 30.5456 48.3748 32.2032 46.3463 32.2032ZM46.3463 26.7262C45.3629 26.7262 44.574 27.5292 44.574 28.5072C44.574 29.4955 45.3731 30.2883 46.3463 30.2883C47.3298 30.2883 48.1186 29.4852 48.1186 28.5072C48.1289 27.5292 47.3298 26.7262 46.3463 26.7262ZM48.2313 47.6047V58.0852H53.7633C54.2858 58.0852 54.7161 58.5175 54.7161 59.0426C54.7161 59.5677 54.2858 60 53.7531 60H0.952742C0.430271 60 0 59.5677 0 59.0426C0 58.5175 0.430271 58.0852 0.952742 58.0852H6.4848V47.5944C5.66523 47.1826 5.07105 46.2766 5.07105 45.2883V35.8476C5.07105 34.2107 6.3926 32.8826 8.02148 32.8826H9.02545C9.98843 32.8826 10.8285 33.4592 11.187 34.3034L13.7789 34.5196L17.3952 31.8222C17.9075 31.4413 18.5221 31.2869 19.1471 31.3795C19.772 31.4722 20.3252 31.8016 20.7042 32.3164C21.0833 32.8312 21.2369 33.4489 21.1447 34.0769C21.0525 34.7049 20.7247 35.2608 20.2125 35.6417L15.879 38.8847C15.418 39.2347 14.8443 39.3995 14.2707 39.348L11.3919 39.1009V55.3878C12.8436 55.4481 14.0115 56.6195 14.0639 58.0852H25.1196V52.5669H15.1927C14.6702 52.5669 14.2399 52.1345 14.2399 51.6095V48.7268C14.2399 48.2018 14.6702 47.7694 15.1927 47.7694H18.2046V45.8236H17.6206C17.2518 46.1016 16.7191 46.081 16.381 45.7413C16.0122 45.3706 16.0122 44.7632 16.381 44.3926L16.5757 44.197C16.7498 44.022 16.9957 43.919 17.2518 43.919H19.1573C19.6798 43.919 20.1101 44.3514 20.1101 44.8765V47.7694H21.8106V44.1662C21.8106 43.6411 22.2409 43.2087 22.7634 43.2087H24.8738C25.1299 43.2087 25.3655 43.3117 25.5499 43.4867L26.7792 44.7221H28.572V44.578C28.572 44.0529 29.0023 43.6205 29.5248 43.6205H34.4934C35.0159 43.6205 35.4461 44.0529 35.4461 44.578V47.7694H37.2389V43.2396C37.2389 42.7145 37.6692 42.2821 38.1917 42.2821C38.7141 42.2821 39.1444 42.7145 39.1444 43.2396V47.7694H40.0152C40.5377 47.7694 40.9679 48.2018 40.9679 48.7268V51.6095C40.9577 52.1345 40.5377 52.5669 40.005 52.5669H32.926V58.0852H40.6416C40.6893 56.6242 41.8591 55.438 43.314 55.3775V39.0906L40.4352 39.3377C39.8615 39.3892 39.2878 39.2244 38.8268 38.8744L34.4934 35.6417C33.4484 34.8593 33.2231 33.3665 34.0017 32.3164C34.3807 31.8016 34.9339 31.4722 35.5588 31.3795C36.1837 31.2869 36.8087 31.4413 37.3106 31.8222L40.927 34.5196L43.5188 34.3034C43.8877 33.4592 44.7175 32.8826 45.6805 32.8826H46.6844C48.3133 32.8826 49.6451 34.2107 49.6451 35.8476V45.2986C49.6451 46.2869 49.0509 47.1929 48.2313 47.6047ZM19.1502 49.6843C19.1526 49.6843 19.1549 49.6843 19.1573 49.6843C19.1597 49.6843 19.1621 49.6843 19.1646 49.6843H22.7533L22.7634 49.6843L22.7734 49.6843H34.4731L34.4832 49.6843L34.4932 49.6843H38.1824L38.1917 49.6843L38.201 49.6843H39.0625V50.652L31.9732 50.652H26.0724L16.1454 50.652V49.6843H19.1502ZM23.7161 47.7694H33.5304V45.5354H30.4673V45.6795C30.4673 46.2046 30.037 46.637 29.5145 46.637H26.3797C26.1236 46.637 25.888 46.534 25.7036 46.359L24.4742 45.1236H23.7161V47.7694ZM27.0251 58.0851V52.5669H31.0307V58.0851H27.0251ZM46.3259 58.0851H42.5456C42.5866 57.6424 42.9656 57.2821 43.4164 57.2718H44.2565C44.7789 57.2718 45.2092 56.8394 45.2092 56.3143V38.0405C45.2092 37.7728 45.0965 37.5257 44.9019 37.3404C44.7072 37.1654 44.4409 37.0728 44.1745 37.0933L40.2713 37.4228C40.1586 37.4228 40.0459 37.4022 39.9537 37.3301L35.6203 34.0975C35.4154 33.943 35.3744 33.6548 35.5281 33.4489C35.6305 33.315 35.7637 33.2738 35.8354 33.2636C35.9071 33.2533 36.0506 33.243 36.1837 33.3459L40.0869 36.2594C40.2713 36.4036 40.4967 36.4653 40.7323 36.4447L44.3487 36.1359C44.8302 36.0947 45.199 35.7138 45.2194 35.2299C45.2297 34.9828 45.4346 34.7872 45.6805 34.7872H46.6844C47.2684 34.7872 47.7396 35.2608 47.7396 35.8476V45.2883C47.7396 45.6486 47.4118 45.9163 47.2684 45.9163C46.7459 45.9266 46.3259 46.3487 46.3259 46.8737V58.0851ZM8.35955 32.2032C6.33113 32.2032 4.68176 30.5456 4.68176 28.5072C4.68176 26.4688 6.33113 24.8113 8.35955 24.8113C10.388 24.8113 12.0373 26.4688 12.0373 28.5072C12.0373 30.5456 10.388 32.2032 8.35955 32.2032ZM8.35955 26.7262C7.37608 26.7262 6.58725 27.5292 6.58725 28.5072C6.58725 29.4955 7.38632 30.2883 8.35955 30.2883C9.34303 30.2883 10.1319 29.4852 10.1319 28.5072C10.1319 27.5292 9.33278 26.7262 8.35955 26.7262ZM12.1603 58.0851H8.39028V46.884C8.39028 46.359 7.97026 45.9266 7.44779 45.9266C7.30436 45.9266 6.97654 45.6589 6.97654 45.2986V35.8476C6.97654 35.2608 7.44779 34.7872 8.03172 34.7872H9.03569C9.28156 34.7872 9.48645 34.9828 9.49669 35.2299C9.51718 35.7035 9.89623 36.0947 10.3675 36.1359L13.9838 36.4447C14.2194 36.4653 14.4448 36.3933 14.6292 36.2594L18.5324 33.3459C18.6656 33.2533 18.809 33.2533 18.8807 33.2636C18.9524 33.2738 19.0856 33.315 19.188 33.4489C19.2802 33.5827 19.2802 33.7268 19.27 33.7989C19.2598 33.871 19.2188 34.0048 19.0856 34.1078L14.7521 37.3404C14.6599 37.4125 14.5473 37.4434 14.4346 37.4331L10.5314 37.1036C10.265 37.083 9.99868 37.1757 9.80403 37.3507C9.60938 37.5257 9.49669 37.7831 9.49669 38.0508V56.3246C9.49669 56.8497 9.92697 57.2821 10.4494 57.2821H11.2792C11.7403 57.2821 12.1193 57.6321 12.1603 58.0851Z" fill="#D1D2D4"/>
</svg>
