<svg width="78" height="50" viewBox="0 0 78 50" fill="none" xmlns="http://www.w3.org/2000/svg">
<path fill-rule="evenodd" clip-rule="evenodd" d="M1.39645 47.5088V46.0354C1.39645 45.4862 1.74557 45.0174 2.26924 44.8433L25.1362 37.7177C29.057 36.4988 32.5481 34.2084 35.2336 31.1144L61.7662 0.42861C62.0079 0.160729 62.3436 0 62.7061 0H76.7378C77.1406 0 77.53 0.200911 77.7583 0.522368C77.9865 0.857219 78.0537 1.27243 77.906 1.66086L76.1604 6.49612C75.9859 6.9917 75.5159 7.31315 74.9922 7.31315H70.3288C70.5775 7.61751 70.7681 7.85244 70.915 8.03638H74.2269C74.6297 8.03638 75.0057 8.23729 75.2474 8.55875C75.4756 8.8936 75.5428 9.30881 75.4085 9.68385L65.1096 39.0704C64.9217 39.5794 64.4517 39.9008 63.928 39.9008H60.356L59.2264 40.5974H62.1287C62.5316 40.5974 62.921 40.7983 63.1492 41.1197C63.3775 41.4546 63.4446 41.8698 63.2969 42.2582L61.4236 47.5088H65.9959C66.6807 47.5088 67.2446 48.0713 67.2446 48.7544C67.2446 49.4375 66.6807 50.0001 65.9959 50.0001H1.24875C0.563953 50.0001 0 49.4375 0 48.7544C0 48.0713 0.563953 47.5088 1.24875 47.5088H1.39645ZM58.9418 37.8452L68.8745 9.50325C68.6709 9.25074 68.4029 8.91928 68.1024 8.54889L57.1661 38.9402L58.9418 37.8452ZM53.6814 41.3201L66.5195 5.65229C66.6941 5.15671 67.164 4.83525 67.6877 4.83525H74.1329L74.9788 2.4779H63.2835L56.5858 10.229C57.8374 12.1387 58.4899 14.3362 58.4899 16.6354C58.4899 23.1449 53.1861 28.4355 46.6604 28.4355C44.9766 28.4355 43.3021 28.0753 41.7676 27.3778L37.1269 32.7485C34.146 36.2041 30.252 38.749 25.8881 40.1018L3.89396 46.9462V47.5087H20.1949V45.7942C20.1949 44.7495 21.0408 43.9056 22.0882 43.9056H24.7602C25.7941 43.9056 26.6401 44.7495 26.6401 45.7942V47.5087H29.057V45.7942C29.057 44.7495 29.9029 43.9056 30.9502 43.9056H33.6223C34.6562 43.9056 35.5021 44.7495 35.5021 45.7942V47.5087H37.9056V45.7942C37.9056 44.7495 38.7516 43.9056 39.7989 43.9056H42.471C43.5049 43.9056 44.3508 44.7495 44.3508 45.7942V47.5087H46.7678V45.7942C46.7678 44.7495 47.6137 43.9056 48.661 43.9056H51.3331C52.367 43.9056 53.2129 44.7495 53.2129 45.7942V47.5087H58.7853L60.3698 43.0887H54.9885C54.9296 43.0975 54.8702 43.102 54.8108 43.102C54.3946 43.102 53.9917 42.8877 53.7501 42.5127C53.5184 42.1362 53.506 41.6886 53.6814 41.3201ZM54.8664 12.2188L43.4922 25.382C44.5125 25.7434 45.5864 25.9443 46.6604 25.9443C51.8031 25.9443 55.9924 21.7653 55.9924 16.6354C55.9924 15.0696 55.6037 13.5707 54.8664 12.2188ZM63.0418 37.4229H61.7394L71.1654 10.5143H72.4679L63.0418 37.4229ZM49.2653 47.5087H50.7289V46.3969H49.2653V47.5087ZM41.8802 47.5087H40.4166V46.3969H41.8802V47.5087ZM31.5545 47.5087H33.0181V46.3969H31.5545V47.5087ZM24.156 47.5087H22.6924V46.3969H24.156V47.5087Z" fill="#D1D2D4"/>
</svg>
